<svg width="28" height="28" viewBox="0 0 28 28" fill="none" xmlns="http://www.w3.org/2000/svg">
<path d="M28 0H0V28H28V0Z" fill="black"/>
<path d="M14.0547 7.53846C15.138 7.53846 16.4959 6.8061 17.3045 5.82962C18.0369 4.94469 18.5709 3.70884 18.5709 2.47298C18.5709 2.30515 18.5556 2.13732 18.5251 2C17.3198 2.04577 15.8703 2.80865 15.0006 3.8309C14.3141 4.60903 13.6885 5.82963 13.6885 7.08074C13.6885 7.26383 13.719 7.44692 13.7343 7.50795C13.8106 7.5232 13.9326 7.53846 14.0547 7.53846ZM10.2403 26C11.7203 26 12.3764 25.0083 14.2225 25.0083C16.0992 25.0083 16.5111 25.9695 18.1589 25.9695C19.7762 25.9695 20.8595 24.4743 21.8818 23.0095C23.0261 21.3312 23.499 19.6834 23.5296 19.6071C23.4228 19.5766 20.3255 18.3102 20.3255 14.7552C20.3255 11.6732 22.7667 10.2848 22.904 10.178C21.2867 7.85887 18.8303 7.79784 18.1589 7.79784C16.3433 7.79784 14.8633 8.89638 13.9326 8.89638C12.9256 8.89638 11.5982 7.85887 10.0267 7.85887C7.03624 7.85887 4 10.3306 4 14.9994C4 17.8983 5.12905 20.965 6.51748 22.9485C7.70756 24.6268 8.74507 26 10.2403 26Z" fill="white"/>
</svg>
